<mxfile host="app.diagrams.net" modified="2023-04-01T08:05:13.540Z" agent="Mozilla/5.0 (Macintosh; Intel Mac OS X 10_15_7) AppleWebKit/605.1.15 (KHTML, like Gecko) Version/16.0 Safari/605.1.15" etag="RNaxWs7N2ek9e7TVlahl" version="21.1.2" type="github">
  <diagram name="收包流程" id="X6vtCilPfu81nBl4msaw">
    <mxGraphModel dx="1434" dy="827" grid="1" gridSize="10" guides="1" tooltips="1" connect="1" arrows="1" fold="1" page="1" pageScale="1" pageWidth="827" pageHeight="1169" math="0" shadow="0">
      <root>
        <mxCell id="0" />
        <mxCell id="1" parent="0" />
        <mxCell id="nTR00Saugi2rTo9ndp0Z-25" value="6.把数据保存到内核缓存区" style="text;html=1;align=center;verticalAlign=middle;resizable=0;points=[];autosize=1;strokeColor=none;fillColor=#66FFB3;" parent="1" vertex="1">
          <mxGeometry x="657" y="500" width="170" height="30" as="geometry" />
        </mxCell>
        <mxCell id="nTR00Saugi2rTo9ndp0Z-22" value="4.硬中断简单处理" style="text;html=1;align=center;verticalAlign=middle;resizable=0;points=[];autosize=1;strokeColor=none;fillColor=#66FFB3;" parent="1" vertex="1">
          <mxGeometry x="340" y="450" width="120" height="30" as="geometry" />
        </mxCell>
        <mxCell id="nTR00Saugi2rTo9ndp0Z-33" style="edgeStyle=orthogonalEdgeStyle;rounded=0;orthogonalLoop=1;jettySize=auto;html=1;exitX=0.5;exitY=1;exitDx=0;exitDy=0;entryX=0.5;entryY=0;entryDx=0;entryDy=0;" parent="1" source="nTR00Saugi2rTo9ndp0Z-1" target="nTR00Saugi2rTo9ndp0Z-3" edge="1">
          <mxGeometry relative="1" as="geometry" />
        </mxCell>
        <mxCell id="nTR00Saugi2rTo9ndp0Z-1" value="用户进程" style="rounded=1;whiteSpace=wrap;html=1;fillColor=#FF9999;" parent="1" vertex="1">
          <mxGeometry x="190" y="250" width="120" height="60" as="geometry" />
        </mxCell>
        <mxCell id="nTR00Saugi2rTo9ndp0Z-36" style="edgeStyle=orthogonalEdgeStyle;rounded=0;orthogonalLoop=1;jettySize=auto;html=1;exitX=0.75;exitY=0;exitDx=0;exitDy=0;entryX=0.75;entryY=1;entryDx=0;entryDy=0;" parent="1" source="nTR00Saugi2rTo9ndp0Z-3" target="nTR00Saugi2rTo9ndp0Z-1" edge="1">
          <mxGeometry relative="1" as="geometry" />
        </mxCell>
        <mxCell id="nTR00Saugi2rTo9ndp0Z-3" value="内核" style="rounded=1;whiteSpace=wrap;html=1;fillColor=#33FF33;" parent="1" vertex="1">
          <mxGeometry x="190" y="450" width="120" height="60" as="geometry" />
        </mxCell>
        <mxCell id="nTR00Saugi2rTo9ndp0Z-18" style="edgeStyle=orthogonalEdgeStyle;rounded=0;orthogonalLoop=1;jettySize=auto;html=1;exitX=0;exitY=0.5;exitDx=0;exitDy=0;" parent="1" source="nTR00Saugi2rTo9ndp0Z-4" target="nTR00Saugi2rTo9ndp0Z-7" edge="1">
          <mxGeometry relative="1" as="geometry" />
        </mxCell>
        <mxCell id="nTR00Saugi2rTo9ndp0Z-4" value="网卡" style="rounded=1;whiteSpace=wrap;html=1;fillColor=#99CCFF;" parent="1" vertex="1">
          <mxGeometry x="430" y="660" width="120" height="60" as="geometry" />
        </mxCell>
        <mxCell id="nTR00Saugi2rTo9ndp0Z-5" value="" style="endArrow=classic;html=1;rounded=0;entryX=0.5;entryY=1;entryDx=0;entryDy=0;" parent="1" target="nTR00Saugi2rTo9ndp0Z-4" edge="1">
          <mxGeometry width="50" height="50" relative="1" as="geometry">
            <mxPoint x="490" y="790" as="sourcePoint" />
            <mxPoint x="440" y="560" as="targetPoint" />
          </mxGeometry>
        </mxCell>
        <mxCell id="nTR00Saugi2rTo9ndp0Z-6" value="1.收到网络数据" style="text;html=1;align=center;verticalAlign=middle;resizable=0;points=[];autosize=1;strokeColor=none;fillColor=#66FFB3;" parent="1" vertex="1">
          <mxGeometry x="500" y="750" width="110" height="30" as="geometry" />
        </mxCell>
        <mxCell id="nTR00Saugi2rTo9ndp0Z-20" style="edgeStyle=orthogonalEdgeStyle;rounded=0;orthogonalLoop=1;jettySize=auto;html=1;exitX=0.5;exitY=0;exitDx=0;exitDy=0;entryX=0.5;entryY=1;entryDx=0;entryDy=0;" parent="1" source="nTR00Saugi2rTo9ndp0Z-7" target="nTR00Saugi2rTo9ndp0Z-3" edge="1">
          <mxGeometry relative="1" as="geometry" />
        </mxCell>
        <mxCell id="nTR00Saugi2rTo9ndp0Z-7" value="CPU" style="rounded=1;whiteSpace=wrap;html=1;fillColor=#FF0080;" parent="1" vertex="1">
          <mxGeometry x="190" y="555" width="120" height="60" as="geometry" />
        </mxCell>
        <mxCell id="nTR00Saugi2rTo9ndp0Z-17" value="" style="rounded=1;whiteSpace=wrap;html=1;fillColor=#d2d9f4;" parent="1" vertex="1">
          <mxGeometry x="500" y="260" width="140" height="350" as="geometry" />
        </mxCell>
        <mxCell id="nTR00Saugi2rTo9ndp0Z-24" style="edgeStyle=orthogonalEdgeStyle;rounded=0;orthogonalLoop=1;jettySize=auto;html=1;exitX=1;exitY=0.5;exitDx=0;exitDy=0;entryX=1;entryY=0.5;entryDx=0;entryDy=0;" parent="1" source="nTR00Saugi2rTo9ndp0Z-13" target="nTR00Saugi2rTo9ndp0Z-14" edge="1">
          <mxGeometry relative="1" as="geometry">
            <Array as="points">
              <mxPoint x="710" y="565" />
              <mxPoint x="710" y="465" />
            </Array>
          </mxGeometry>
        </mxCell>
        <mxCell id="nTR00Saugi2rTo9ndp0Z-13" value="Ring Buffer" style="rounded=1;whiteSpace=wrap;html=1;fillColor=#CC00CC;" parent="1" vertex="1">
          <mxGeometry x="510" y="530" width="120" height="70" as="geometry" />
        </mxCell>
        <mxCell id="jUjKyHG8ywFZ_pe1_Nus-2" style="edgeStyle=orthogonalEdgeStyle;rounded=0;orthogonalLoop=1;jettySize=auto;html=1;exitX=1;exitY=0.25;exitDx=0;exitDy=0;entryX=1;entryY=0.5;entryDx=0;entryDy=0;" edge="1" parent="1" source="nTR00Saugi2rTo9ndp0Z-14" target="nTR00Saugi2rTo9ndp0Z-26">
          <mxGeometry relative="1" as="geometry">
            <Array as="points">
              <mxPoint x="710" y="445" />
              <mxPoint x="710" y="345" />
            </Array>
          </mxGeometry>
        </mxCell>
        <mxCell id="nTR00Saugi2rTo9ndp0Z-14" value="内核缓存区" style="rounded=1;whiteSpace=wrap;html=1;fillColor=#cc00cc;" parent="1" vertex="1">
          <mxGeometry x="510" y="425" width="120" height="80" as="geometry" />
        </mxCell>
        <mxCell id="nTR00Saugi2rTo9ndp0Z-15" value="" style="endArrow=classic;html=1;rounded=0;exitX=0.5;exitY=0;exitDx=0;exitDy=0;entryX=0.5;entryY=1;entryDx=0;entryDy=0;edgeStyle=orthogonalEdgeStyle;" parent="1" source="nTR00Saugi2rTo9ndp0Z-4" target="nTR00Saugi2rTo9ndp0Z-13" edge="1">
          <mxGeometry width="50" height="50" relative="1" as="geometry">
            <mxPoint x="390" y="610" as="sourcePoint" />
            <mxPoint x="440" y="560" as="targetPoint" />
          </mxGeometry>
        </mxCell>
        <mxCell id="nTR00Saugi2rTo9ndp0Z-16" value="2.DMA（直接内存存取，写入Ring Buffer）" style="text;html=1;align=center;verticalAlign=middle;resizable=0;points=[];autosize=1;strokeColor=none;fillColor=#66FFB3;" parent="1" vertex="1">
          <mxGeometry x="570" y="630" width="250" height="30" as="geometry" />
        </mxCell>
        <mxCell id="nTR00Saugi2rTo9ndp0Z-19" value="3.产生硬中断" style="text;html=1;align=center;verticalAlign=middle;resizable=0;points=[];autosize=1;strokeColor=none;fillColor=#66FFB3;" parent="1" vertex="1">
          <mxGeometry x="280" y="640" width="90" height="30" as="geometry" />
        </mxCell>
        <mxCell id="nTR00Saugi2rTo9ndp0Z-21" style="edgeStyle=orthogonalEdgeStyle;rounded=0;orthogonalLoop=1;jettySize=auto;html=1;exitX=1;exitY=0.5;exitDx=0;exitDy=0;entryX=0;entryY=0.5;entryDx=0;entryDy=0;" parent="1" source="nTR00Saugi2rTo9ndp0Z-3" target="nTR00Saugi2rTo9ndp0Z-13" edge="1">
          <mxGeometry relative="1" as="geometry" />
        </mxCell>
        <mxCell id="nTR00Saugi2rTo9ndp0Z-26" value="用户态缓冲区" style="rounded=1;whiteSpace=wrap;html=1;fillColor=#cc00cc;arcSize=0;" parent="1" vertex="1">
          <mxGeometry x="510" y="325" width="120" height="40" as="geometry" />
        </mxCell>
        <mxCell id="nTR00Saugi2rTo9ndp0Z-31" value="9.把数据拷贝到进程缓存区" style="text;html=1;align=center;verticalAlign=middle;resizable=0;points=[];autosize=1;strokeColor=none;fillColor=#66FFB3;" parent="1" vertex="1">
          <mxGeometry x="657" y="330" width="170" height="30" as="geometry" />
        </mxCell>
        <mxCell id="nTR00Saugi2rTo9ndp0Z-35" value="8.调read，如果数据还没ready&lt;br&gt;fd是阻塞的，则进程会被阻塞" style="text;html=1;align=center;verticalAlign=middle;resizable=0;points=[];autosize=1;strokeColor=none;fillColor=#66FFB3;" parent="1" vertex="1">
          <mxGeometry x="70" y="325" width="180" height="40" as="geometry" />
        </mxCell>
        <mxCell id="nTR00Saugi2rTo9ndp0Z-37" value="10.唤醒进程" style="text;html=1;align=center;verticalAlign=middle;resizable=0;points=[];autosize=1;strokeColor=none;fillColor=#66FFB3;" parent="1" vertex="1">
          <mxGeometry x="300" y="330" width="90" height="30" as="geometry" />
        </mxCell>
        <mxCell id="nTR00Saugi2rTo9ndp0Z-38" value="" style="endArrow=none;dashed=1;html=1;rounded=0;" parent="1" edge="1">
          <mxGeometry width="50" height="50" relative="1" as="geometry">
            <mxPoint x="10" y="380" as="sourcePoint" />
            <mxPoint x="840" y="380" as="targetPoint" />
          </mxGeometry>
        </mxCell>
        <mxCell id="nTR00Saugi2rTo9ndp0Z-23" value="5.产生软中断" style="text;html=1;align=center;verticalAlign=middle;resizable=0;points=[];autosize=1;strokeColor=none;fillColor=#66FFB3;" parent="1" vertex="1">
          <mxGeometry x="355" y="520" width="90" height="30" as="geometry" />
        </mxCell>
        <mxCell id="jUjKyHG8ywFZ_pe1_Nus-1" value="" style="edgeStyle=orthogonalEdgeStyle;rounded=0;orthogonalLoop=1;jettySize=auto;html=1;exitX=1;exitY=0.5;exitDx=0;exitDy=0;entryX=0;entryY=0.5;entryDx=0;entryDy=0;" edge="1" parent="1" source="nTR00Saugi2rTo9ndp0Z-1" target="nTR00Saugi2rTo9ndp0Z-26">
          <mxGeometry relative="1" as="geometry">
            <mxPoint x="310" y="280" as="sourcePoint" />
            <mxPoint x="490" y="280" as="targetPoint" />
          </mxGeometry>
        </mxCell>
        <mxCell id="nTR00Saugi2rTo9ndp0Z-39" value="内存" style="text;html=1;align=center;verticalAlign=middle;resizable=0;points=[];autosize=1;strokeColor=none;fillColor=#cc00cc;" parent="1" vertex="1">
          <mxGeometry x="545" y="270" width="50" height="30" as="geometry" />
        </mxCell>
        <mxCell id="nTR00Saugi2rTo9ndp0Z-28" value="7.用户进程申请&lt;br&gt;进程缓冲区" style="text;html=1;align=center;verticalAlign=middle;resizable=0;points=[];autosize=1;strokeColor=none;fillColor=#66FFB3;" parent="1" vertex="1">
          <mxGeometry x="355" y="260" width="110" height="40" as="geometry" />
        </mxCell>
      </root>
    </mxGraphModel>
  </diagram>
</mxfile>
